#!OML:ASF F:\VICON\USERDATA\INSTALL\rory3\rory3.ASF
:FULLY-SPECIFIED
:DEGREES
269
root -0.354969 18.1117 -22.6405 -101.02 -27.24 122.906
lowerback -20.5407 -7.5063 -22.7045
upperback -16.9162 -11.5859 -10.9746
thorax -7.36303 -6.68595 -1.43759
lowerneck -15.6574 -6.92543 -7.14796
upperneck -7.50372 -9.42229 -6.37597
head 0.15175 -5.12817 -1.28086
rclavicle -6.50026e-014 -1.01778e-013
rhumerus 86.5236 -35.8116 -38.1379
rradius 22.0839
rwrist 26.3938
rhand 1.59141 7.21973
rfingers 7.12502
rthumb 27.1138 -20.853
lclavicle -6.50026e-014 -1.01778e-013
lhumerus 5.57951 5.53721 -25.1534
lradius 19.9189
lwrist -49.0695
lhand -3.0839 30.1459
lfingers 7.12502
lthumb 22.6334 58.8389
rfemur -165.79 -11.2822 126.09
rtibia 23.6631
rfoot -122.377 -124.102
rtoes 42.6883
lfemur 16.6591 -25.9183 2.07804
ltibia 19.4762
lfoot -34.5736 41.2849
ltoes 49.6788
270
root -0.35444 18.0955 -22.5938 -101.019 -27.6578 122.968
lowerback -20.3059 -7.34864 -22.1168
upperback -16.785 -11.3649 -10.8298
thorax -7.30034 -6.55332 -1.4889
lowerneck -16.6238 -6.25533 -7.89845
upperneck -6.07869 -8.0794 -6.1444
head 0.82961 -4.49252 -1.10201
rclavicle 7.55382e-015 1.00187e-013
rhumerus 91.1276 -34.1166 -49.3252
rradius 20.2357
rwrist 36.6878
rhand -4.73803 12.7583
rfingers 7.12502
rthumb 21.0451 -16.1198
lclavicle 7.55382e-015 1.00187e-013
lhumerus 4.06819 10.1263 -22.8287
lradius 20.5412
lwrist -52.0461
lhand -6.66363 28.6132
lfingers 7.12502
lthumb 19.1943 57.686
rfemur -165.951 -10.9519 126.541
rtibia 23.8453
rfoot -122.031 -123.96
rtoes 43.1521
lfemur 16.3032 -25.9297 1.69422
ltibia 18.8587
lfoot -34.6838 41.7767
ltoes 49.2283
271
root -0.354603 18.0828 -22.5527 -101.386 -29.1725 123.251
lowerback -19.8372 -7.11203 -20.451
upperback -16.6264 -11.1277 -10.4623
thorax -7.29925 -6.42337 -1.76616
lowerneck -18.0213 -5.47105 -8.87454
upperneck -4.21049 -6.42502 -5.65781
head 1.75464 -3.71463 -0.781505
rclavicle -5.60573e-014 7.63333e-014
rhumerus 90.334 -34.63 -50.5846
rradius 19.6785
rwrist 38.814
rhand -10.3697 16.8079
rfingers 7.12502
rthumb 15.6276 -12.5809
lclavicle -5.60573e-014 7.63333e-014
lhumerus 2.42232 11.1045 -21.3565
lradius 20.4221
lwrist -50.4555
lhand -11.4231 27.6474
lfingers 7.12502
lthumb 14.6129 57.1125
rfemur -166.133 -12.0066 127.787
rtibia 24.1629
rfoot -123.417 -124.126
rtoes 43.0996
lfemur 16.2171 -25.6234 2.5598
ltibia 18.0581
lfoot -36.3354 40.6124
ltoes 49.1967
272
root -0.352003 18.0605 -22.494 -101.723 -29.1549 123.309
lowerback -19.2948 -6.92138 -20.3615
upperback -16.4332 -10.8879 -10.3893
thorax -7.31193 -6.24321 -1.63013
lowerneck -16.759 -3.77247 -5.9996
upperneck -5.71942 -5.18511 -9.28589
head 0.860425 -3.21409 -2.28317
rclavicle -5.96354e-015 1.19271e-013
rhumerus 82.1712 -36.6932 -39.5346
rradius 20.6673
rwrist 30.4519
rhand -14.1965 19.547
rfingers 7.12502
rthumb 11.9397 -10.0925
lclavicle -5.96354e-015 1.19271e-013
lhumerus 1.0946 12.6117 -19.4702
lradius 20.0624
lwrist -48.98
lhand -16.0447 26.7063
lfingers 7.12502
lthumb 10.157 56.4411
rfemur -166.67 -10.2613 128.547
rtibia 24.5921
rfoot -121.287 -122.127
rtoes 43.1334
lfemur 16.5681 -25.5949 1.2951
ltibia 16.828
lfoot -40.9065 36.7862
ltoes 49.9619
273
root -0.346635 18.0397 -22.4388 -101.803 -29.2666 123.28
lowerback -18.889 -6.78854 -20.2298
upperback -16.2755 -10.711 -10.3194
thorax -7.3066 -6.10972 -1.54644
lowerneck -18.1183 -2.96851 -6.60032
upperneck -3.81687 -3.56609 -9.27277
head 1.79006 -2.50279 -2.16681
rclavicle 9.34288e-014 1.49486e-013
rhumerus 79.8301 -36.9471 -38.9289
rradius 20.3138
rwrist 30.7788
rhand -18.2522 24.102
rfingers 7.12502
rthumb 8.02692 -5.72561
lclavicle 9.34288e-014 1.49486e-013
lhumerus -0.541988 14.9797 -17.4651
lradius 20.3199
lwrist -48.3314
lhand -19.8696 25.6345
lfingers 7.12502
lthumb 6.46573 55.5159
rfemur -167.159 -8.4171 129.363
rtibia 25.0632
rfoot -119.336 -120.065
rtoes 42.758
lfemur 16.6767 -25.577 0.249548
ltibia 15.2327
lfoot -44.1332 34.0354
ltoes 50.4955
274
root -0.342278 18.0193 -22.3851 -102.142 -30.1937 123.455
lowerback -18.3059 -6.65162 -19.2362
upperback -15.9123 -10.5526 -9.91315
thorax -7.57961 -6.01948 -1.63979
lowerneck -20.7203 -2.2458 -8.14689
upperneck -0.733331 -1.5831 -8.3065
head 3.00291 -1.66408 -1.4625
rclavicle -1.9471e-013 6.20208e-014
rhumerus 78.8506 -37.038 -40.4511
rradius 19.777
rwrist 32.6506
rhand -22.0437 28.8486
rfingers 7.12502
rthumb 4.36653 -1.08643
lclavicle -1.9471e-013 6.20208e-014
lhumerus -2.65179 16.5699 -15.7101
lradius 20.7677
lwrist -46.973
lhand -23.2584 24.4712
lfingers 7.12502
lthumb 3.19353 54.427
rfemur -167.465 -7.93441 130.63
rtibia 25.3028
rfoot -118.703 -118.842
rtoes 42.2962
lfemur 16.491 -24.8524 0.428943
ltibia 14.0508
lfoot -45.4242 32.859
ltoes 50.4777
275
root -0.338694 17.9985 -22.3258 -102.255 -30.8657 123.721
lowerback -18.1417 -6.54628 -18.5015
upperback -15.7563 -10.3567 -9.64007
thorax -7.43019 -5.90314 -1.66403
lowerneck -20.067 -0.773965 -6.73805
upperneck -1.13972 -0.0432767 -10.4448
head 2.82536 -1.00603 -2.20358
rclavicle 3.40916e-014 -1.43125e-014
rhumerus 79.7015 -37.1964 -45.2467
rradius 18.9753
rwrist 36.8241
rhand -25.5184 33.3632
rfingers 7.12502
rthumb 1.01086 3.38584
lclavicle 3.40916e-014 -1.43125e-014
lhumerus -4.90241 17.5502 -14.0295
lradius 21.4023
lwrist -45.3018
lhand -26.4823 23.3214
lfingers 7.12502
lthumb 0.0799438 53.3012
rfemur -167.502 -7.52647 131.382
rtibia 25.6188
rfoot -119.163 -117.405
rtoes 41.5167
lfemur 15.6993 -23.5494 0.531397
ltibia 13.2855
lfoot -44.8502 33.385
ltoes 50.2099
276
root -0.328242 17.9728 -22.2512 -101.317 -30.041 123.459
lowerback -18.3998 -6.4663 -19.1348
upperback -15.8354 -10.2357 -9.9705
thorax -7.46876 -5.8645 -1.72249
lowerneck -20.098 0.243429 -6.01913
upperneck 0.321908 1.45579 -11.4967
head 3.35447 -0.385762 -2.53194
rclavicle -4.96962e-014 -7.95139e-015
rhumerus 68.8288 -37.0293 -32.2235
rradius 20.7148
rwrist 27.4977
rhand -28.7041 34.9214
rfingers 7.12502
rthumb -2.06596 4.95168
lclavicle -4.96962e-014 -7.95139e-015
lhumerus -6.57057 17.5652 -12.2566
lradius 21.4964
lwrist -43.499
lhand -29.8053 21.7878
lfingers 7.12502
lthumb -3.12943 51.7446
rfemur -221.029 -184.568 131.028
rtibia 25.9258
rfoot -89.951 -46.5034
rtoes 41.2189
lfemur 13.7602 -22.7514 -1.17238
ltibia 12.9574
lfoot -46.8643 30.8128
ltoes 50.1331
277
root -0.326313 17.9679 -22.1906 -102.306 -31.2591 123.757
lowerback -17.1735 -6.02748 -17.6729
upperback -15.6269 -9.93287 -9.93112
thorax -7.89975 -5.70705 -2.20232
lowerneck -20.3828 1.91807 -4.97235
upperneck 1.26176 3.71236 -12.6648
head 3.82616 0.597198 -2.86841
rclavicle 3.73715e-014 6.36111e-015
rhumerus 63.8167 -36.3841 -28.9101
rradius 21.162
rwrist 25.8509
rhand -32.1529 37.2399
rfingers 7.12502
rthumb -5.3964 7.32857
lclavicle 3.73715e-014 6.36111e-015
lhumerus -8.22243 16.9421 -10.4042
lradius 21.707
lwrist -41.6596
lhand -31.8016 21.3823
lfingers 7.12502
lthumb -5.05718 51.302
rfemur -220.854 -184.674 132.667
rtibia 26.2492
rfoot -88.6153 -48.0237
rtoes 39.9752
lfemur 13.2906 -22.0417 -1.25681
ltibia 13.1566
lfoot -46.1443 30.6916
ltoes 50.2988
278
root -0.314278 17.953 -22.1277 -102.444 -31.7879 123.857
lowerback -16.7125 -6.02284 -17.2682
upperback -15.441 -9.89871 -9.6555
thorax -7.84474 -5.63642 -2.05117
lowerneck -20.8609 3.57501 -4.28098
upperneck 1.94676 5.99437 -13.8738
head 4.28963 1.56156 -3.13918
rclavicle -3.77691e-015 -6.36111e-014
rhumerus 60.6802 -35.9289 -27.8532
rradius 21.6257
rwrist 25.0016
rhand -33.271 37.8166
rfingers 7.12502
rthumb -6.47583 7.93558
lclavicle -3.77691e-015 -6.36111e-014
lhumerus -10.2684 21.2124 -8.5888
lradius 20.7551
lwrist -44.6056
lhand -32.9998 20.3195
lfingers 7.12502
lthumb -6.21398 50.2084
rfemur -221.036 -184.624 133.045
rtibia 26.5357
rfoot -88.0688 -49.1361
rtoes 39.0392
lfemur 11.5408 -21.0234 -1.81459
ltibia 13.9213
lfoot -45.5612 30.2825
ltoes 50.4691
279
root -0.302499 17.9404 -22.0663 -102.535 -32.6207 124.102
lowerback -16.7011 -5.72576 -16.8475
upperback -15.0266 -9.32764 -9.70144
thorax -7.37706 -5.34774 -2.26682
lowerneck -18.7231 5.69975 -2.97083
upperneck 0.715522 8.33655 -15.2989
head 3.83271 2.80364 -3.57075
rclavicle -2.78299e-015 -8.11041e-014
rhumerus 56.7604 -36.2332 -26.804
rradius 22.1164
rwrist 24.9888
rhand -32.4153 36.9964
rfingers 7.12502
rthumb -5.64969 7.09175
lclavicle -2.78299e-015 -8.11041e-014
lhumerus -10.9282 26.8216 -6.2238
lradius 19.5777
lwrist -48.7155
lhand -34.1668 18.8494
lfingers 7.12502
lthumb -7.34055 48.702
rfemur -168.168 -5.34931 133.347
rtibia 27.0505
rfoot -121.06 -110.944
rtoes 37.7754
lfemur 9.97518 -19.8305 -1.99462
ltibia 14.0171
lfoot -44.9712 30.8847
ltoes 50.7321
280
root -0.294696 17.9317 -21.9937 -102.519 -33.9376 124.392
lowerback -16.672 -5.86532 -15.6529
upperback -14.6058 -9.26491 -8.99128
thorax -6.75825 -5.27543 -2.12227
lowerneck -17.0416 7.82333 0.261373
upperneck -1.29517 10.2819 -19.9887
head 3.59584 3.65302 -5.38312
rclavicle -2.95195e-014 -9.06458e-014
rhumerus 51.3117 -34.489 -21.8407
rradius 23.4097
rwrist 20.6095
rhand -31.5509 36.4019
rfingers 7.12502
rthumb -4.81513 6.47663
lclavicle -2.95195e-014 -9.06458e-014
lhumerus -13.9398 30.0694 -4.68945
lradius 19.9373
lwrist -49.8354
lhand -34.0515 18.1241
lfingers 7.12502
lthumb -7.22925 47.9806
rfemur -168.217 -5.89269 134.194
rtibia 27.5163
rfoot -124.666 -110.155
rtoes 36.777
lfemur 8.29748 -18.8876 -1.74574
ltibia 14.0128
lfoot -45.5861 29.7527
ltoes 50.9028
281
root -0.283817 17.8995 -21.9237 -102.847 -34.2988 124.418
lowerback -16.228 -5.48632 -15.6208
upperback -14.1999 -8.69507 -9.17998
thorax -6.54863 -4.95903 -2.23709
lowerneck -19.3538 8.46256 -0.633034
upperneck 2.12528 12.1514 -18.6975
head 5.03945 4.29455 -4.55369
rclavicle -2.80783e-015 -1.51076e-013
rhumerus 47.6268 -33.737 -21.124
rradius 23.1451
rwrist 20.8621
rhand -31.2806 35.9907
rfingers 7.12502
rthumb -4.55411 6.05969
lclavicle -2.80783e-015 -1.51076e-013
lhumerus -14.9247 33.796 -2.33753
lradius 19.375
lwrist -52.051
lhand -33.5316 17.5473
lfingers 7.12502
lthumb -6.72745 47.4204
rfemur -168.717 -5.47394 134.607
rtibia 28.0447
rfoot -125.102 -108.769
rtoes 36.4601
lfemur 7.29062 -18.8733 -3.03579
ltibia 14.0023
lfoot -47.8666 25.4509
ltoes 50.681
282
root -0.272053 17.8667 -21.838 -102.612 -34.4883 124.644
lowerback -16.2751 -5.18996 -15.0008
upperback -14.0445 -8.32669 -9.47927
thorax -6.4458 -4.84365 -2.84751
lowerneck -20.3751 9.90934 -0.641621
upperneck 3.92925 14.5946 -18.4469
head 5.96639 5.30662 -4.11239
rclavicle -1.09754e-013 -6.99722e-014
rhumerus 42.0292 -31.7566 -17.9801
rradius 23.8148
rwrist 18.3196
rhand -30.9954 34.771
rfingers 7.12502
rthumb -4.27868 4.8342
lclavicle -1.09754e-013 -6.99722e-014
lhumerus -16.285 21.4388 1.29137
lradius 22.0571
lwrist -38.7494
lhand -32.223 20.4641
lfingers 7.12502
lthumb -5.46407 50.3736
rfemur -222.745 -184.28 134.833
rtibia 28.5923
rfoot -86.3461 -52.915
rtoes 36.4623
lfemur 5.58259 -18.5058 -4.31119
ltibia 13.9196
lfoot -49.2974 21.8505
ltoes 50.4499
283
root -0.27 17.8512 -21.7697 -103.027 -36.0376 125.045
lowerback -15.6701 -4.55353 -12.4653
upperback -13.8818 -7.82252 -10.0561
thorax -6.83998 -4.78983 -4.68182
lowerneck -18.0508 11.64 1.56715
upperneck 2.97603 16.4724 -20.3931
head 5.84745 6.32568 -4.86129
rclavicle -9.37891e-014 -1.09729e-013
rhumerus 38.4065 -32.2872 -19.8678
rradius 24.2459
rwrist 21.179
rhand -29.5787 34.3745
rfingers 7.12502
rthumb -2.91056 4.41458
lclavicle -9.37891e-014 -1.09729e-013
lhumerus -16.9905 27.1529 2.19061
lradius 20.3983
lwrist -43.5812
lhand -32.8913 18.1985
lfingers 7.12502
lthumb -6.10924 48.0904
rfemur -168.919 -5.70454 135.825
rtibia 29.1801
rfoot -129.498 -107.351
rtoes 35.753
lfemur 4.37221 -17.5877 -4.14955
ltibia 13.5899
lfoot -49.0548 21.6191
ltoes 50.4735
